<svg xmlns="http://www.w3.org/2000/svg" viewBox="0 0 426.43 368.35"><defs><style>.cls-1{fill:#ff403b;}</style></defs><title>logo_1</title><g id="Layer_2" data-name="Layer 2"><g id="Layer_3" data-name="Layer 3"><path class="cls-1" d="M59,364.33q0,1.23-1.44,1.23a38,38,0,0,1-6-.7,43.34,43.34,0,0,0-6-.78,33.1,33.1,0,0,1-15,4.1A29.44,29.44,0,0,1,9,359.3a29,29,0,0,1-9-21.36,29.39,29.39,0,0,1,8.84-21.61,29.39,29.39,0,0,1,21.61-8.84A32.5,32.5,0,0,1,43,310.2q7.06,2.92,10.3,7.55a3.51,3.51,0,0,1,.78,1.89q0,1.23-4.56,6.28a39.74,39.74,0,0,1-5.83,5.7,3,3,0,0,1-1.64.53q-.7,0-3.8-1.95a12.59,12.59,0,0,0-6.83-1.95,8.88,8.88,0,0,0-6.67,2.85A9.54,9.54,0,0,0,22,337.94a9.87,9.87,0,0,0,2.89,7,9.13,9.13,0,0,0,6.83,3,11.33,11.33,0,0,0,4.8-1q-.08-1-.66-5.79a52.58,52.58,0,0,1-.41-5.75,2,2,0,0,1,.16-.82,1.2,1.2,0,0,1,.86-.25q.29,0,2.22.25a75.9,75.9,0,0,0,8.08.33q1.8,0,5.42-.16t5.42-.16q1.19,0,1.19,1,0,2.22-.39,6.65t-.39,6.65q0,2.59.45,7.82T59,364.33Z"/><path class="cls-1" d="M110,350.13a20.25,20.25,0,0,1-.53,4q-.74,3.53-.82,4-.33,2.83-1.35,8.33-.21.94-1.52.94a7.48,7.48,0,0,1-1.15-.12,148.25,148.25,0,0,0-19.17-1q-3.28,0-9.81.16t-9.77.16q-1.35,0-1.35-1.19,0-4.6.49-13.81t.49-13.81q0-4.68-.45-17.44-.12-3.28-.45-9.81l0-.57q-.08-.94,1-.94,3.2,0,9.62.16t9.66.17q3.24,0,9.81-.17t9.85-.16a2.49,2.49,0,0,1,2.75,2.09q.21.82.82,7.2t.62,7.28c0,.55-.29.82-.86.82q-2.21,0-6.69-.45t-6.73-.45q-3.65,0-4.19,0-3.2.29-3.2,1.72,0,2,3.82,2.46,1.07.12,5.25.12a63.75,63.75,0,0,0,6.61-.33q4.19-.41,3.41-.41,1.07,0,1.07,1.19a25.51,25.51,0,0,1-.37,3.53q-.49,2.92-.53,3.65-.53,5.5-.53,7.84,0,.9-1.27.9.37,0-3.57-.49a85.08,85.08,0,0,0-10.14-.53q-3.74,0-3.73,2.05a1.86,1.86,0,0,0,.49,1.44q1.19,1,12.35,1,1.52,0,4.54-.27t4.53-.27Q110,349.15,110,350.13Z"/><path class="cls-1" d="M165.18,317.18q0,.86-3.88,7.86t-4.66,7.61a1.89,1.89,0,0,1-1.15.49,8.5,8.5,0,0,1-1.81-1.35,18.24,18.24,0,0,0-3.73-2.46A13.72,13.72,0,0,0,144,328a8.88,8.88,0,0,0-6.67,2.85,9.49,9.49,0,0,0-2.73,6.79,9.68,9.68,0,0,0,2.73,6.87,8.81,8.81,0,0,0,6.67,2.89q6.61,0,10.18-3.94.57-.66.86-.66.49,0,5,6.65,4.56,6.81,4.55,8a3.69,3.69,0,0,1-.94,2,21.29,21.29,0,0,1-9.19,6.57,30.4,30.4,0,0,1-32.69-6.63,29,29,0,0,1-8.88-21.44,30.34,30.34,0,0,1,30.45-30.45q12.76,0,20.81,8A2.57,2.57,0,0,1,165.18,317.18Z"/><path class="cls-1" d="M224.73,364.25a2.46,2.46,0,0,1-.76,1.48,2,2,0,0,1-1.33.86q-1.15,0-3.43-.16t-3.39-.16q-2.26,0-6.77.16t-6.77.16a.83.83,0,0,1-.86-.49q-.21-.49-.41-1a65.67,65.67,0,0,0-3.16-6.65q-2.63-4.92-3.41-6.52-1-2.63-2.09-5.29-.16-.21-.21-.21-.78,0-.78,2.05,0,2.75.25,8.31t.25,8.31q0,1.52-1.27,1.52-1.77,0-5.29-.16t-5.29-.16q-1.6,0-4.82.16t-4.82.16q-1.35,0-1.35-1.19,0-4.47.41-13.44t.41-13.44q0-4.76-.39-14.3t-.39-14.3q0-.9,1-.9,1.72,0,5.19.16t5.19.17q1.77,0,5.25-.19t5.21-.18q.66,0,.66.82,0,2.87-.21,8.64t-.21,8.64a6.39,6.39,0,0,0,.21,2.09q.37.7,1.81.7,5.29,0,6.61-9.56A24.68,24.68,0,0,1,203.47,310q.82-1.27,10.51-1.27,10.55,0,10.55,1.19a1.32,1.32,0,0,1-.21.57q-1.72,2.59-1.72,2.63a9.07,9.07,0,0,0-1.07,3l-1.19,6.36a27.62,27.62,0,0,1-2.09,6.07,23.62,23.62,0,0,1-4.64,6.16q-2.18,2.13-2.17,2.83,0,.25,2.26,5.83,1.44,3.65,4.72,10.75.41.7,6.24,9.73A.82.82,0,0,1,224.73,364.25Z"/><path class="cls-1" d="M288.75,337.86a30.48,30.48,0,1,1-8.88-21.65A29.45,29.45,0,0,1,288.75,337.86Zm-21,0A9.54,9.54,0,0,0,265,331a9.32,9.32,0,0,0-13.4,0,9.55,9.55,0,0,0-2.71,6.85,9.3,9.3,0,0,0,2.77,6.73,9.29,9.29,0,0,0,13.34,0A9.35,9.35,0,0,0,267.73,337.86Z"/><path class="cls-1" d="M367.66,310q0,3.08-.21,9.29t-.21,9.29q0,.86-3.61,9.44-2.91,7-4.23,9.89-2.46,5.38-5.7,11.7-1.07,1.93-3,5.79-.49,1.23-1.23,1.23-1.81,0-5.42-.1t-5.42-.1q-1.19,0-3.63.08t-3.63.08q-.78,0-1.35-1.19-3-6-8.74-18.14-6.89-15.47-6.89-17.24,0-3.24.23-9.75t.23-9.75q0-1.52.94-1.52,1.72,0,5.19.16t5.19.17q1.76,0,5.29-.19t5.25-.18q.66,0,.66.86,0,3.49-.47,10.49t-.47,10.49A14.27,14.27,0,0,0,338,336.1q1.27,2.54,2.5,5.13a45.12,45.12,0,0,0,2.54-5.71,30.75,30.75,0,0,0,1.68-6q0-2.13.12-6.36.29-12.52.29-12.89,0-1.31.62-1.31,1.76,0,5.27.18t5.27.19q1.72,0,5.17-.17t5.17-.16Q367.66,309,367.66,310Z"/><path class="cls-1" d="M426.43,366.14q0,.45-1.11.45-1.81,0-5.36-.16t-5.31-.16q-1.72,0-5.11.16t-5.07.16a1.81,1.81,0,0,1-1.85-1q-.74-1.85-2.13-5.58-1.35-3.36-3.86-10.22-.57-1.76-1.07-1.76t-.37,1.35q0,2.79.55,8.37t.55,8.21q0,.94-.82.94a7.41,7.41,0,0,1-1-.12,84.33,84.33,0,0,0-10.67-.49q-1.56,0-4.7.16t-4.7.16q-1.35,0-1.35-1.19,0-4.6.49-13.81t.49-13.81q0-11.74-1.15-27.25l0-.57a.79.79,0,0,1,.78-.94h1.56q4.47,0,13.5-.12t13.54-.12q9.6,0,15.84,4.06,7.26,4.8,7.26,13.91a22.05,22.05,0,0,1-1.74,9.52,19.06,19.06,0,0,1-6.34,6.89q-1,.7-1,1.35,0,.49,5.09,10.83T426.43,366.14ZM403.2,329.69q0-4.64-6.81-4.64-1.68,0-1.68,5.13,0,.62.08,1.85t.08,1.85q0,.62,1.68.62Q403.2,334.5,403.2,329.69Z"/><path class="cls-1" d="M230.26,165.7c-4.4-3.46-8.91-7.62-12.05-9.46-13-7.61-33.77-19.29-46.92-6.24s-11,42.36-31.51,47.56c-15,3.8-31-9.33-27.54-25.31,3.53-16.43,27-23.13,36.72-35.84,11.87-15.58.68-24.9-16.37-25.76-15.11-.76-34.48,9.47-46.85-3.38-11.1-11.53-5.87-31.05,8.49-36.15,14.08-5,27.66,6.54,40.17,11.88,15.46,6.59,33,1.18,27.29-17.44a64.83,64.83,0,0,0-11.4-21.65c-4.36-5.66-10.92-16.2-11.49-23.28C137.41,3.31,163.36-5.72,175.46,4c11.25,9,6.23,30.23,9.14,43,1.37,6,3.62,17.67,10.08,21,6.16,3.15,13.4-3.17,17.93-7,12-10.12,10.95-30.34,24.32-38.66,13.2-8.21,33.31-3,34.9,14.42S254.68,60.37,243,68.22c-5.84,3.92-14.18,11.51-16.77,18.25-2.92,7.58,2,18.41,5.81,24.7,14.75,24.09,90,80.25,95.08,84.33,4.14,3.34,19.38,13.74,17.67,21-1.36,5.78-6.89,12.94-18.3,17.14-20.55,7.56-43.63-.68-55.34-19.18-4.24-6.7-8.57-13.21-11.76-17.18C254.55,191.26,236.79,170.84,230.26,165.7Z"/></g></g></svg>